<?xml version="1.0" encoding="UTF-8"?>
<svg width="468" height="392" viewBox="0 0 468 392" fill="none" xmlns="http://www.w3.org/2000/svg" role="img" aria-labelledby="title desc">
  <title id="title">Miraclemin GitHub Stats</title>
  <desc id="desc">Daily generated GitHub profile statistics card for Miraclemin.</desc>
  <defs>
    <linearGradient id="bg" x1="18" y1="18" x2="450" y2="374" gradientUnits="userSpaceOnUse">
      <stop stop-color="#0D1117" />
      <stop offset="0.55" stop-color="#101722" />
      <stop offset="1" stop-color="#161B22" />
    </linearGradient>
    <linearGradient id="accent" x1="28" y1="0" x2="235" y2="0" gradientUnits="userSpaceOnUse">
      <stop stop-color="#58A6FF" />
      <stop offset="0.5" stop-color="#79C0FF" />
      <stop offset="1" stop-color="#A5D6FF" />
    </linearGradient>
    <radialGradient id="glowA" cx="0" cy="0" r="1" gradientUnits="userSpaceOnUse" gradientTransform="translate(70 36) rotate(46.3) scale(163.986 108.119)">
      <stop stop-color="#1F6FEB" stop-opacity="0.28" />
      <stop offset="1" stop-color="#1F6FEB" stop-opacity="0" />
    </radialGradient>
    <radialGradient id="glowB" cx="0" cy="0" r="1" gradientUnits="userSpaceOnUse" gradientTransform="translate(392 58) rotate(131.82) scale(151.682 85.1147)">
      <stop stop-color="#A371F7" stop-opacity="0.20" />
      <stop offset="1" stop-color="#A371F7" stop-opacity="0" />
    </radialGradient>
    <pattern id="grid" width="18" height="18" patternUnits="userSpaceOnUse">
      <circle cx="1.25" cy="1.25" r="1.25" fill="rgba(240,246,252,0.06)" />
    </pattern>
  </defs>
  <style>
    .eyebrow { font: 700 11px 'Segoe UI', Ubuntu, Sans-Serif; fill: #7d8590; letter-spacing: 0.2em; text-transform: uppercase; }
    .title { font: 700 29px 'Segoe UI', Ubuntu, Sans-Serif; fill: #f0f6fc; }
    .subtitle { font: 400 14px 'Segoe UI', Ubuntu, Sans-Serif; fill: #8b949e; }
    .pill { font: 600 12px 'Segoe UI', Ubuntu, Sans-Serif; fill: #dbeafe; }
    .card-label { font: 600 13px 'Segoe UI', Ubuntu, Sans-Serif; fill: #8b949e; }
    .card-value { font: 700 26px 'Segoe UI', Ubuntu, Sans-Serif; fill: #f0f6fc; }
    .footer { font: 500 11px 'Segoe UI', Ubuntu, Sans-Serif; fill: #7d8590; letter-spacing: 0.03em; }
  </style>
  <rect x="10" y="10" width="448" height="372" rx="24" fill="url(#bg)" stroke="#30363d" />
  <rect x="10" y="10" width="448" height="372" rx="24" fill="url(#grid)" opacity="0.16" />
  <ellipse cx="110" cy="42" rx="168" ry="96" fill="url(#glowA)" />
  <ellipse cx="372" cy="62" rx="144" ry="82" fill="url(#glowB)" />

  <text x="28" y="40" class="eyebrow">GitHub Profile</text>
  <text x="28" y="72" class="title">Miraclemin Stats</text>
  <text x="28" y="94" class="subtitle">Stable daily card generated from GitHub API data</text>
  <rect x="28" y="108" width="206" height="4" rx="2" fill="url(#accent)" opacity="0.95" />

  <g transform="translate(338 28)">
    <rect width="96" height="32" rx="16" fill="rgba(88,166,255,0.12)" stroke="rgba(88,166,255,0.28)" />
    <text x="48" y="20" class="pill" text-anchor="middle">Updated Daily</text>
  </g>

  <g transform="translate(296 68)">
    <rect width="138" height="32" rx="16" fill="rgba(255,255,255,0.04)" stroke="rgba(240,246,252,0.06)" />
    <text x="69" y="20" class="pill" text-anchor="middle">Since Aug 17, 2016</text>
  </g>

  
    <g transform="translate(28 102)">
      <rect width="192" height="72" rx="18" fill="rgba(255,255,255,0.03)" stroke="rgba(240,246,252,0.07)" />
      <rect x="16" y="16" width="8" height="40" rx="4" fill="#58A6FF" />
      <text x="40" y="31" class="card-label">Public Repos</text>
      <text x="40" y="56" class="card-value">97</text>
    </g>
    <g transform="translate(248 102)">
      <rect width="192" height="72" rx="18" fill="rgba(255,255,255,0.03)" stroke="rgba(240,246,252,0.07)" />
      <rect x="16" y="16" width="8" height="40" rx="4" fill="#7EE787" />
      <text x="40" y="31" class="card-label">Followers</text>
      <text x="40" y="56" class="card-value">30</text>
    </g>
    <g transform="translate(28 192)">
      <rect width="192" height="72" rx="18" fill="rgba(255,255,255,0.03)" stroke="rgba(240,246,252,0.07)" />
      <rect x="16" y="16" width="8" height="40" rx="4" fill="#F2CC60" />
      <text x="40" y="31" class="card-label">Total Stars</text>
      <text x="40" y="56" class="card-value">35</text>
    </g>
    <g transform="translate(248 192)">
      <rect width="192" height="72" rx="18" fill="rgba(255,255,255,0.03)" stroke="rgba(240,246,252,0.07)" />
      <rect x="16" y="16" width="8" height="40" rx="4" fill="#FF7B72" />
      <text x="40" y="31" class="card-label">Pull Requests</text>
      <text x="40" y="56" class="card-value">13</text>
    </g>
    <g transform="translate(28 282)">
      <rect width="192" height="72" rx="18" fill="rgba(255,255,255,0.03)" stroke="rgba(240,246,252,0.07)" />
      <rect x="16" y="16" width="8" height="40" rx="4" fill="#D2A8FF" />
      <text x="40" y="31" class="card-label">Issues</text>
      <text x="40" y="56" class="card-value">6</text>
    </g>
    <g transform="translate(248 282)">
      <rect width="192" height="72" rx="18" fill="rgba(255,255,255,0.03)" stroke="rgba(240,246,252,0.07)" />
      <rect x="16" y="16" width="8" height="40" rx="4" fill="#FFA657" />
      <text x="40" y="31" class="card-label">Following</text>
      <text x="40" y="56" class="card-value">33</text>
    </g>

  <text x="28" y="356" class="footer">Source: GitHub API</text>
  <text x="438" y="356" class="footer" text-anchor="end">via GitHub Actions</text>
</svg>